# xmcd CD database file
# Copyright (C) 1997 Ti Kan
#
# Track frame offsets:
#  217
#  12807
#  24442
#  33005
#  41440
#  50060
#  61222
#  69480
#  82312
#  95290
#  109857
#  122232
#  135005
#  145772
#  156370
#  168030
#  174085
#  184587
#  195005
#  204072
#  214062
#  224352
#
# Disc length: 3139 seconds
#
# Revision: 1
# Processed by: cddbd v1.5.1PL0 Copyright (c) Steve Scherf et al.
# Submitted via: CDWizzard Release:4.35
#
DISCID=180c4116
DTITLE=Gene Autry - Gene Autry Sings Gene Autry (Vol. 1)
DYEAR=1900
DGENRE=
TTITLE0=Back In The Saddle Again
TTITLE1=I Hang My Head And Cry
TTITLE2=Tears On My Pillow
TTITLE3=Be Honest With Me
TTITLE4=Goodbye Little Darlin'
TTITLE5=Lonely River
TTITLE6=Tweedle-O-Twill
TTITLE7=Under Fiesta Stars
TTITLE8=Let Me Cry On Your Shoulder
TTITLE9=Blue Canadian Rockies
TTITLE10=(I Was) Just Walking Out The Door
TTITLE11=Cowboy's Trademark
TTITLE12=Can't Shake The Sands Of Texas From My Shoes
TTITLE13=The Last Mile Home
TTITLE14=Dixie Cannonball
TTITLE15=Cowboy Blues
TTITLE16=You're The Only Good Thing
TTITLE17=A Voice In The Choir
TTITLE18=The Angel Song
TTITLE19=A New Star Is Shining In Heaven
TTITLE20=Silver Spurs
TTITLE21=Keep Rollin' Lazy Longhorns
EXTD=
EXTT0=
EXTT1=
EXTT2=
EXTT3=
EXTT4=
EXTT5=
EXTT6=
EXTT7=
EXTT8=
EXTT9=
EXTT10=
EXTT11=
EXTT12=
EXTT13=
EXTT14=
EXTT15=
EXTT16=
EXTT17=
EXTT18=
EXTT19=
EXTT20=
EXTT21=
PLAYORDER=
